<?xml version="1.0" encoding="utf-8"?>
<!-- Generator: Adobe Illustrator 25.2.3, SVG Export Plug-In . SVG Version: 6.00 Build 0)  -->
<svg version="1.1" id="Layer_1" xmlns="http://www.w3.org/2000/svg" xmlns:xlink="http://www.w3.org/1999/xlink" x="0px" y="0px"
	 viewBox="0 0 140 27.7" style="enable-background:new 0 0 140 27.7;" xml:space="preserve">
<g>
	<path d="M45.4,26.1h-2.3c-0.1,0-2.7-0.1-2.7-2.5v-10H42c2.9,0.1,4.9,2.2,4.9,4.5h0.6V8.6h-0.6c0,2.4-1.8,4.5-4.8,4.6h-1.6V3.4
		c0-1.4,0.8-2.5,2.7-2.5h1.7c3.9,0,6.6,2.4,7.3,6.1h0.5l-0.5-6.6H33.6v0.5c0.7,0,3.2,0.1,3.2,2.6v20c0,2.1-1.8,2.6-3.2,2.6v0.5h19.3
		l0.5-7.3h-0.6C52.5,22.8,50.3,26.1,45.4,26.1z M15.6,0.9c1.7,0,5.1,1.3,3.1,6.3L13,21.9L4.8,1.4L0,0.4c0.6,0.4,1,0.9,1.3,1.8
		l9.9,25.5l8.6-22c0.8-1.9,1.9-4.8,4.6-4.8V0.5h-8.8V0.9z M81.7,23.7c-1.6-4.5-3.2-9.6-7.7-9.6c1.1-0.1,2-0.2,2.9-0.6
		c2-0.7,4.9-2.5,4.9-6.3c0-6.1-6.2-6.8-9.3-6.8h-9.9v0.5c0.7,0,3.1-0.1,3.1,2.6v20.3l4.2,2.7c-0.4-0.6-0.5-1.2-0.5-2.1V14.1h1.4
		c5.7,0.2,4.6,12.4,8.6,12.4h5.9v-0.5C84.1,26.1,82.5,26,81.7,23.7z M72.5,13.7h-3.1V3.5c0-2.6,2.5-2.6,3.1-2.6c3.9,0,5,2.7,5,6.3
		C77.4,13.4,72.9,13.7,72.5,13.7z M139.4,19.3c-0.3,3.6-2.5,6.9-7.4,6.9h-2.3c-0.1,0-2.7-0.1-2.7-2.5v-10h1.5
		c2.9,0.1,4.9,2.2,4.9,4.5h0.6V8.6h-0.6c0,2.4-1.8,4.5-4.8,4.6h-1.6V3.4c0-1.4,0.8-2.5,2.7-2.5h1.7c3.9,0,6.6,2.4,7.3,6.1h0.5
		l-0.5-6.6h-18.6v0.5c0.7,0,3.2,0.1,3.2,2.6v20c0,2.1-1.8,2.6-3.2,2.6v0.5h19.3l0.5-7.3H139.4z M102.3,10.5c-1.9-1-3.7-2.4-4.3-4.5
		c-0.5-1.8-0.1-4.1,1.5-5c2.6-1.3,9.1,0.4,9.6,7.1h0.5l0.5-6.4c0,0-6.2-3-11.5-1.1c-2.1,0.8-4,2.8-4,5.1c-0.1,3,1.7,5.8,4.4,7.3
		c2.8,1.5,6.1,3.2,7.9,5.9c1.6,2.4,0.7,6.6-2.1,7.5c-2.7,0.9-8.6-1.1-8.8-7.4h-0.5l-0.6,6.4c0,0,8.1,3.7,13.8,0.3
		c3.1-1.9,3.5-7.6-0.3-11.2C106.5,12.8,104.4,11.6,102.3,10.5z"/>
</g>
</svg>
