<?xml version="1.0" encoding="UTF-8"?>
<svg xmlns="http://www.w3.org/2000/svg" id="Layer_1" data-name="Layer 1" viewBox="0 0 220 220" width="30" height="30">
  <defs>
    <style>.cls-1{fill:#ffffff;}</style>
  </defs>
  <path class="cls-1" d="M110.0111,93.1927A16.8067,16.8067,0,1,0,126.8184,110,16.824,16.824,0,0,0,110.0111,93.1927Z"></path>
  <path class="cls-1" d="M110,2A108,108,0,1,0,218,110,108,108,0,0,0,110,2Zm50.0708,128.7878c-.4046,8.0782-2.25,15.2334-8.1436,21.1267-5.895,5.9185-13.05,7.7627-21.1267,8.1453-8.3249.4734-33.2759.4734-41.6008,0-8.0781-.4043-15.21-2.25-21.1267-8.1453-5.9168-5.8933-7.7627-13.0485-8.1453-21.1267-.4714-8.323-.4714-33.2759,0-41.6006.4046-8.0764,2.2285-15.2317,8.1453-21.1267C73.99,62.1673,81.1454,60.3214,89.2,59.9388c8.3249-.4714,33.2759-.4714,41.6008,0,8.0764.406,15.2317,2.25,21.1267,8.1453,5.9168,5.895,7.761,13.0486,8.1436,21.1267C160.544,97.5357,160.544,122.4649,160.0709,130.7879Z"></path>
  <path class="cls-1" d="M149.3163,80.2784a17.0116,17.0116,0,0,0-9.5835-9.585c-6.6148-2.6093-22.3868-2.0253-29.7217-2.0253s-23.085-.6075-29.7217,2.0253a17.0116,17.0116,0,0,0-9.5835,9.585c-2.6108,6.615-2.0254,22.387-2.0254,29.7217s-.6074,23.0835,2.0254,29.72a17.0122,17.0122,0,0,0,9.5835,9.585c6.615,2.6093,22.387,2.0253,29.7217,2.0253s23.0835.6075,29.7217-2.0253a17.011,17.011,0,0,0,9.5835-9.585c2.6328-6.615,2.0253-22.3853,2.0253-29.72S151.9491,86.9151,149.3163,80.2784Zm-39.3052,55.5723A25.8514,25.8514,0,1,1,135.8617,110,25.8113,25.8113,0,0,1,110.0111,135.8507ZM136.92,89.12a6.0293,6.0293,0,1,1,6.0293-6.0293A6.0165,6.0165,0,0,1,136.92,89.12Z"></path>
</svg>
