<svg width="5.5563mm" height="5.5563mm" version="1.1" viewBox="0 0 5.5563 5.5563" xmlns="http://www.w3.org/2000/svg">
 <g transform="translate(-80.127 -123.4)">
  <path d="m81.685 127.4-0.53881-0.0192-1.0199 1.5729h5.5562l-0.91866-1.5344-0.65427-0.01-0.14432 0.31751h0.54843l0.4784 0.82861h-4.2116l0.53757-0.93109 0.54967 0.01z" style="fill:#ffffff"/>
  <path transform="matrix(.26458 0 0 .26458 80.127 123.4)" d="m10.838 0.25381c-3.0965 0.0049134-7.1646 2.4363-7.2009 7.2364-0.07273 4.8002 7.0547 10.619 7.0547 10.619s6.9453-5.6367 6.9453-10.691c0.1091-4.6911-3.6706-7.2043-6.7991-7.1642zm0.01683 1.5288c1.805-0.039805 5.5461 1.474 5.5461 5.5675 1.1e-5 4.5888-5.6482 9.1232-5.6482 9.1232s-5.8648-4.592-5.8068-8.9497c0.0291-4.3577 4.1372-5.8094 5.9089-5.7411z" style="fill:#ffffff"/>
  <path transform="matrix(.26458 0 0 .26458 80.127 123.4)" d="m10.619 5.2734a2.0728 2.0728 0 0 0-2.0742 2.0723 2.0728 2.0728 0 0 0 2.0742 2.0723 2.0728 2.0728 0 0 0 2.0723-2.0723 2.0728 2.0728 0 0 0-2.0723-2.0723zm-0.03711 1.0547a0.94549 0.98185 0 0 1 0.94531 0.98047 0.94549 0.98185 0 0 1-0.94531 0.98242 0.94549 0.98185 0 0 1-0.94531-0.98242 0.94549 0.98185 0 0 1 0.94531-0.98047z" style="fill:#ffffff"/>
 </g>
</svg>
