<?xml version="1.0" encoding="UTF-8"?>
<svg xmlns="http://www.w3.org/2000/svg" id="Layer_1" data-name="Layer 1" viewBox="0 0 220 220" width="30" height="30">
  <defs>
    <style>.cls-1{fill:#ffffff;}</style>
  </defs>
  <path class="cls-1" d="M110,2A108,108,0,1,0,218,110,108,108,0,0,0,110,2Zm45.7559,84.5373c.0737,1.0237.0737,2.0472.0737,3.0691,0,31.2119-23.7544,67.1726-67.1726,67.1726a66.7213,66.7213,0,0,1-36.2544-10.5969,49.0356,49.0356,0,0,0,5.7022.292,47.2831,47.2831,0,0,0,29.3088-10.0869A23.6515,23.6515,0,0,1,65.34,120.0147a29.918,29.918,0,0,0,4.4588.364,24.946,24.946,0,0,0,6.2121-.8037,23.612,23.612,0,0,1-18.93-23.1706v-.292A23.7837,23.7837,0,0,0,67.7515,99.11a23.6465,23.6465,0,0,1-7.3095-31.576,67.1135,67.1135,0,0,0,48.68,24.7044,26.6218,26.6218,0,0,1-.584-5.4085,23.6314,23.6314,0,0,1,40.8589-16.153,46.4822,46.4822,0,0,0,14.9834-5.702,23.54,23.54,0,0,1-10.3789,13.01,47.2917,47.2917,0,0,0,13.5957-3.6534A50.7553,50.7553,0,0,1,155.7557,86.5374Z"></path>
</svg>
